<svg viewBox="0 0 16 16" id="icon-verified" height="1em" width="1em">   
    <g id="V3_(2019_02_04)" stroke="none" stroke-width="1" fill="none" fill-rule="evenodd">
        <g id="Notification_1-Copy-2" transform="translate(-776.000000, -2483.000000)">
            <g id="Group-11" transform="translate(0.000000, 474.000000)">
                <g id="Work-Experience" transform="translate(149.000000, 1158.000000)">
                    <g id="Card-1" transform="translate(0.000000, 45.000000)">
                        <g id="Rectangle-+-Rectangle-Mask" transform="translate(1.000000, 0.000000)">
                            <g id="Card2" transform="translate(35.000000, 714.000000)">
                                <g id="Group-15">
                                    <g id="L3-verified" transform="translate(591.000000, 92.000000)">
                                        <g id="Group-3">
                                            <circle id="Oval" fill="#30AF38" cx="8" cy="8" r="8"></circle>
                                            <path d="M11.5225147,5.65443912 L6.62823008,10.0823778 L4.97095535,8 C4.92381952,7.94651779 4.84733684,7.94640351 4.8,8 C4.75276366,8.05371077 4.75276366,8.1406765 4.8,8.19438727 L6.54290316,10.3739015 C6.56652133,10.4006426 6.59737571,10.4142417 6.62843109,10.4142417 C6.65938597,10.4142417 6.69034085,10.4007569 6.71395902,10.3739015 C6.7168736,10.3707017 6.71787863,10.3663592 6.7203912,10.3628165 C6.72340629,10.3599596 6.72712489,10.3588168 6.72993897,10.355617 L11.6935705,5.84882639 C11.7408068,5.79511562 11.7408068,5.70814989 11.6935705,5.65443912 C11.6461332,5.60084263 11.569751,5.60084263 11.5225147,5.65443912 Z" id="Shape-Copy" stroke="#FFFFFF" fill-rule="nonzero"></path>
                                        </g>
                                    </g>
                                </g>
                            </g>
                        </g>
                    </g>
                </g>
            </g>
        </g>
    </g>
</svg>