<svg width="21px" height="22px" viewBox="0 0 21 22" id="icon-followers">
    <g id="Page-1" stroke="none" stroke-width="1" fill="none" fill-rule="evenodd">
        <g id="GithubProfileView_Desktop" transform="translate(-971.000000, -1021.000000)" fill="#4A4A4A">
            <g id="Group-11" transform="translate(0.000000, 482.000000)">
                <g id="Group-28-Copy" transform="translate(928.000000, 505.000000)">
                    <g id="Group-42" transform="translate(43.000000, 32.000000)">
                        <g id="Group-39">
                            <g id="Group-45">
                                <g id="Followers" transform="translate(0.000000, 2.000000)">
                                    <g id="noun_Group-followers_631282_000000">
                                        <g id="Group">
                                            <path d="M6.10408651,9.18379213 C6.85730142,9.18379213 7.5475488,8.8067569 8.10604345,8.22730159 C7.52051382,7.09471298 7.18582769,5.8130898 7.18582769,4.58336921 C7.18582769,3.54049793 7.41921822,2.5569439 7.82987606,1.68831703 C7.32066034,1.35169167 6.7255487,1.15446184 6.08697576,1.15446184 C4.22087812,1.15446184 2.70794621,2.80941292 2.70794621,4.85066754 C2.70760399,6.89118069 4.23764665,9.18379213 6.10408651,9.18379213 Z" id="Path"></path>
                                            <path d="M8.37707763,10.9369874 C8.0471825,10.8602457 7.70599428,10.8176114 7.35488183,10.8176114 L4.84199809,10.8176114 C2.16793116,10.8179822 0,13.1632377 0,16.0560654 L0.0112930905,16.6755599 C0.0112930905,17.4837573 0.617013398,18.1392129 1.36406844,18.1392129 L3.84170405,18.1392129 C3.96353254,14.920511 5.7930132,12.176347 8.37707763,10.9369874 Z" id="Path"></path>
                                            <path d="M13.0192222,9.95676995 C15.3332791,9.95676995 17.1880837,7.11399109 17.1880837,4.58299848 C17.1877415,2.05200587 15.3117196,0 12.9976627,0 C10.6836058,0 8.80758392,2.05200587 8.80758392,4.58299848 C8.80792614,7.11436182 10.7051653,9.95676995 13.0192222,9.95676995 Z" id="Path"></path>
                                            <path d="M20.5739575,18.4784334 C20.5739575,14.8912231 17.8858598,11.9831953 14.57014,11.9831953 L11.4542737,11.9831953 C8.13821165,11.9831953 5.45045612,14.8912231 5.45045612,18.4784334 L5.46482914,19.2465917 C5.46482914,20.2486823 6.21599077,21.0613285 7.1423664,21.0613285 L18.9111355,21.0613285 C19.8375112,21.0613285 20.5886728,20.2486823 20.5886728,19.2465917 L20.5739575,18.4784334 Z" id="Path"></path>
                                        </g>
                                    </g>
                                </g>
                            </g>
                        </g>
                    </g>
                </g>
            </g>
        </g>
    </g>
</svg>