<svg width="22px" height="22px" viewBox="0 0 22 22" id="icon-contribution">
    <g id="Page-1" stroke="none" stroke-width="1" fill="none" fill-rule="evenodd">
        <g id="GithubProfileView_Desktop" transform="translate(-1144.000000, -1103.000000)" fill="#4A4A4A">
            <g id="Group-11" transform="translate(0.000000, 482.000000)">
                <g id="Group-28-Copy" transform="translate(928.000000, 505.000000)">
                    <g id="Group-42" transform="translate(43.000000, 32.000000)">
                        <g id="Group-36" transform="translate(173.000000, 81.000000)">
                            <g id="Group-43">
                                <g id="Contribution" transform="translate(0.000000, 3.000000)">
                                    <g id="noun_Pie-Chart_498551_000000">
                                        <path d="M18.5858409,17.9125628 L11.445727,10.772449 L21.544898,10.772449 C21.544898,13.5598202 20.4141275,16.0846129 18.5858409,17.9125628 Z" id="Path"></path>
                                        <path d="M10.772449,21.544898 L10.772449,11.445727 L17.9125628,18.5858409 C16.0842762,20.4137908 13.5594835,21.544898 10.772449,21.544898 Z" id="Path"></path>
                                        <path d="M10.0991709,20.1983418 C4.52106218,20.1983418 0,15.6772797 0,10.0991709 C0,4.52106218 4.52106218,0 10.0991709,0 C15.6772797,0 20.1983418,4.52106218 20.1983418,10.0991709 L10.0991709,10.0991709 L10.0991709,20.1983418 Z" id="Path"></path>
                                    </g>
                                </g>
                            </g>
                        </g>
                    </g>
                </g>
            </g>
        </g>
    </g>
</svg>