<svg width="22px" height="23px" viewBox="0 0 22 23" id="icon-languages">
    <g id="Page-1" stroke="none" stroke-width="1" fill="none" fill-rule="evenodd">
        <g id="GithubProfileView_Desktop" transform="translate(-1028.000000, -1199.000000)" fill="#4A4A4A" fill-rule="nonzero">
            <g id="Group-11" transform="translate(0.000000, 482.000000)">
                <g id="Group-28-Copy" transform="translate(928.000000, 505.000000)">
                    <g id="Group-35" transform="translate(99.000000, 211.000000)">
                        <g id="Languages-know">
                            <g id="noun_code_863619_000000" transform="translate(0.600000, 0.800000)">
                                <path d="M21.4776801,5.31178808 L12.3466502,0.437615894 C11.7677376,0.120794702 11.0309398,0.120794702 10.4520272,0.437615894 L1.34731147,5.31178808 C0.768398904,5.62860927 0.4,6.21350993 0.4,6.82278146 L0.4,16.5711258 C0.4,17.2047682 0.768398904,17.7896689 1.34731147,18.0821192 L10.4520272,22.9562914 C10.7414835,23.1025166 11.057254,23.2 11.3993387,23.2 C11.7414234,23.2 12.0571939,23.1268874 12.3466502,22.9562914 L21.4513659,18.0821192 C22.0302785,17.765298 22.3986774,17.1803974 22.3986774,16.5711258 L22.3986774,6.82278146 C22.4249916,6.18913907 22.0565927,5.60423841 21.4776801,5.31178808 Z M8.13637698,13.744106 L5.21549995,11.5507285 L8.16269118,9.57668874 L8.82054637,10.405298 L7.05749447,11.5994702 L8.84686058,12.9398675 L8.13637698,13.744106 Z M10.7151693,15.2794702 L9.662601,14.9382781 L12.2150791,8.06569536 L13.2676474,8.40688742 L10.7151693,15.2794702 Z M14.6886146,13.744106 L14.0044452,12.9398675 L15.7938113,11.5994702 L14.0307594,10.405298 L14.6886146,9.57668874 L17.6358058,11.5507285 L14.6886146,13.744106 Z" id="Shape"></path>
                            </g>
                        </g>
                    </g>
                </g>
            </g>
        </g>
    </g>
</svg>