<svg height="1em" width="1em" viewBox="0 0 16 10" id="icon-messages">
    <g id="Symbols" stroke="none" stroke-width="1" fill="none" fill-rule="evenodd">
        <g id="Message/icon" transform="translate(-8.000000, -10.000000)" fill="#004FC1">
            <g id="noun_messages_680429_000000">
                <g transform="translate(8.000000, 10.000000)">
                    <path d="M15.3,0 L5.4,0 C5.00975965,0.00208541388 4.6929433,0.328684157 4.6875,0.7345 L4.6875,2.4375 L9.6828125,2.4375 C10.4953125,2.4375 11.15625,3.13885 11.15625,3.9845 L11.15625,8.255 L12.34375,8.255 L13.99375,10.30705 C14.3803125,10.786425 14.695,10.66455 14.6928125,10.037625 L14.685625,8.255 L15.3,8.255 C15.6865625,8.255 16,7.948525 16,7.5465 L16,0.7345 C16.0005265,0.33115309 15.6878229,0.00303768937 15.3,0 Z" id="Path"></path>
                    <path d="M9.68125,3.4775 L0.475,3.4775 C0.2128125,3.4775 0,3.711825 0,3.9845 L0,10.114 C0.000470828498,10.2436855 0.0510730709,10.3677249 0.140415943,10.4581963 C0.229758814,10.5486677 0.35033418,10.5979682 0.475,10.595 L1.25,10.595 L1.25,12.428 C1.25,13.053625 1.5728125,13.16575 1.9578125,12.68475 L3.63375,10.595 L9.68125,10.595 C9.80591582,10.5979682 9.92649119,10.5486677 10.0158341,10.4581963 C10.1051769,10.3677249 10.1557792,10.2436855 10.15625,10.114 L10.15625,3.9845 C10.15625,3.711825 9.9434375,3.4775 9.68125,3.4775 Z" id="Path"></path>
                </g>
            </g>
        </g>
    </g>
</svg>