<svg width="16px" height="16px" viewBox="0 0 16 16" id="icon-disabled-peer-verification">
    <g id="Edit-Verified-Exp" stroke="none" stroke-width="1" fill="none" fill-rule="evenodd">
        <g id="Sr-Web-L1-L3-Detailed-1" transform="translate(-699.000000, -717.000000)">
            <g id="Work-Experience" transform="translate(150.000000, 225.000000)">
                <g id="Card-1" transform="translate(0.000000, 34.000000)">
                    <g id="Rectangle-+-Rectangle-Mask" transform="translate(1.000000, 0.000000)">
                        <g id="Group-23" transform="translate(35.000000, 451.000000)">
                            <g id="Group-26" transform="translate(513.000000, 7.000000)">
                                <g id="L1---verification-Pending">
                                    <g id="noun_verified_739208-(Verification">
                                        <path d="M6.96428571,10.8687943 C6.93367347,10.8049645 6.91836735,10.7411348 6.91836735,10.677305 C6.91836735,10.6134752 6.93367347,10.5496454 6.96428571,10.4858156 L7.25510204,9.95921986 L7.25510204,9.32092199 C7.25510204,9.17730496 7.33163265,9.04964539 7.43877551,8.9858156 L7.95918367,8.66666667 L8.25,8.14007092 C8.31122449,8.02836879 8.43367347,7.94858156 8.57142857,7.94858156 L9.16836735,7.94858156 L9.68877551,7.64539007 C9.79591837,7.58156028 9.94897959,7.58156028 10.0561224,7.64539007 L10.5,7.91666667 C10.0714286,7.02304965 9.19897959,6.41666667 8.15816327,6.41666667 L2.61734694,6.41666667 C1.19387755,6.41666667 0,7.61347518 0,9.14539007 L0,11.6666667 L7.23979592,11.6666667 L7.23979592,11.3953901 L6.96428571,10.8687943 Z" id="Shape" fill="#D2D2D2" fill-rule="nonzero"></path>
                                        <path d="M5.25,0 C3.64285714,0 2.33333333,1.30952381 2.33333333,2.91666667 C2.33333333,4.52380952 3.64285714,5.83333333 5.25,5.83333333 C6.85714286,5.83333333 8.16666667,4.52380952 8.16666667,2.91666667 C8.16666667,1.30952381 6.85714286,0 5.25,0 Z" id="Shape" fill="#D2D2D2" fill-rule="nonzero"></path>
                                        <path d="M13.9400228,9.35823171 L13.4868621,8.58460366 L13.4868621,7.73094512 C13.4868621,7.54420732 13.3802361,7.35746951 13.220297,7.2507622 L12.4739147,6.82393293 L12.020754,6.05030488 C11.914128,5.8902439 11.7541889,5.78353659 11.5409368,5.78353659 L10.6612719,5.78353659 L9.88823305,5.33003049 C9.72829398,5.22332317 9.51504189,5.22332317 9.35510282,5.33003049 L8.58206398,5.75685976 L7.70239909,5.75685976 C7.5158035,5.75685976 7.32920792,5.86356707 7.22258187,6.02362805 L6.79607768,6.77057927 L6.02303884,7.22408537 C5.86309977,7.33079268 5.75647372,7.49085366 5.75647372,7.70426829 L5.75647372,8.61128049 L5.32996954,9.35823171 C5.27665651,9.4382622 5.25,9.54496951 5.25,9.625 C5.25,9.73170732 5.27665651,9.8117378 5.32996954,9.89176829 L5.75647372,10.6387195 L5.75647372,11.5457317 C5.75647372,11.7324695 5.86309977,11.9192073 6.02303884,12.0259146 L6.79607768,12.4794207 L7.22258187,13.226372 C7.32920792,13.3864329 7.48914699,13.4931402 7.70239909,13.4931402 L8.58206398,13.4931402 L9.35510282,13.9199695 C9.43507235,13.9733232 9.5416984,14 9.62166794,14 C9.70163747,14 9.80826352,13.9733232 9.88823305,13.9199695 L10.6612719,13.4931402 L11.5409368,13.4931402 C11.7275324,13.4931402 11.914128,13.3864329 12.020754,13.226372 L12.4739147,12.4527439 L13.220297,12.0259146 C13.3802361,11.9192073 13.4868621,11.7591463 13.4868621,11.5457317 L13.4868621,10.6920732 L13.9400228,9.91844512 C14.0199924,9.73170732 14.0199924,9.54496951 13.9400228,9.35823171 Z" id="Path" stroke="#FFFFFF" fill="#D2D2D2" fill-rule="nonzero"></path>
                                        <path d="M8.925,11.6666667 L7.5127193,10.2905983 C7.33098457,10.1135234 7.32720701,9.82265079 7.50428187,9.64091606 C7.5070577,9.63806718 7.50987042,9.63525447 7.5127193,9.63247863 L7.5127193,9.63247863 C7.70063864,9.44937773 8.00023855,9.44937773 8.18815789,9.63247863 L8.925,10.3504274 L10.8285088,8.4957265 C11.0164281,8.3126256 11.316028,8.3126256 11.5039474,8.4957265 L11.5039474,8.4957265 C11.6856821,8.67280136 11.6894597,8.963674 11.5123848,9.14540872 C11.509609,9.14825761 11.5067963,9.15107032 11.5039474,9.15384615 L8.925,11.6666667 Z" id="Path" fill="#FFFFFF" fill-rule="nonzero"></path>
                                    </g>
                                </g>
                            </g>
                        </g>
                    </g>
                </g>
            </g>
        </g>
    </g>
</svg>