<svg width="16px" height="16px" viewBox="0 0 16 16" id="icon-enabled-peer-verification">
    <g id="V3_(2019_02_04)" stroke="none" stroke-width="1" fill="none" fill-rule="evenodd">
        <g id="Notification_1-Copy-2" transform="translate(-779.000000, -1714.000000)">
            <g id="Group-11" transform="translate(0.000000, 474.000000)">
                <g id="Work-Experience" transform="translate(149.000000, 1158.000000)">
                    <g id="Card-1" transform="translate(0.000000, 45.000000)">
                        <g id="Group-26" transform="translate(565.000000, 1.000000)">
                            <g id="L1---verified" transform="translate(65.000000, 36.000000)">
                                <g id="noun_verified_739208-(Verification">
                                    <path d="M7.95918367,12.4214792 C7.92419825,12.3485309 7.90670554,12.2755826 7.90670554,12.2026342 C7.90670554,12.1296859 7.92419825,12.0567376 7.95918367,11.9837893 L8.29154519,11.3819656 L8.29154519,10.6524823 C8.29154519,10.4883485 8.37900875,10.3424519 8.50145773,10.2695035 L9.09620991,9.9047619 L9.42857143,9.3029382 C9.49854227,9.17527862 9.63848397,9.08409321 9.79591837,9.08409321 L10.4781341,9.08409321 L11.0728863,8.73758865 C11.1953353,8.66464032 11.3702624,8.66464032 11.4927114,8.73758865 L12,9.04761905 C11.5102041,8.02634245 10.5131195,7.33333333 9.32361516,7.33333333 L2.99125364,7.33333333 C1.36443149,7.33333333 0,8.70111449 0,10.4518744 L0,13.3333333 L8.27405248,13.3333333 L8.27405248,13.0233029 L7.95918367,12.4214792 Z" id="Shape" fill="#D2D2D2" fill-rule="nonzero"></path>
                                    <path d="M6,0 C4.16326531,0 2.66666667,1.49659864 2.66666667,3.33333333 C2.66666667,5.17006803 4.16326531,6.66666667 6,6.66666667 C7.83673469,6.66666667 9.33333333,5.17006803 9.33333333,3.33333333 C9.33333333,1.49659864 7.83673469,0 6,0 Z" id="Shape" fill="#D2D2D2" fill-rule="nonzero"></path>
                                    <path d="M15.9314547,10.695122 L15.4135567,9.81097561 L15.4135567,8.83536585 C15.4135567,8.62195122 15.2916984,8.40853659 15.1089109,8.28658537 L14.2559025,7.79878049 L13.7380046,6.91463415 C13.6161462,6.73170732 13.4333587,6.6097561 13.189642,6.6097561 L12.1843107,6.6097561 L11.3008378,6.09146341 C11.1180503,5.9695122 10.8743336,5.9695122 10.6915461,6.09146341 L9.80807312,6.57926829 L8.80274181,6.57926829 C8.58948972,6.57926829 8.37623762,6.70121951 8.25437928,6.88414634 L7.76694593,7.73780488 L6.88347296,8.25609756 C6.70068545,8.37804878 6.57882711,8.56097561 6.57882711,8.80487805 L6.57882711,9.84146341 L6.09139375,10.695122 C6.03046458,10.7865854 6,10.9085366 6,11 C6,11.1219512 6.03046458,11.2134146 6.09139375,11.304878 L6.57882711,12.1585366 L6.57882711,13.195122 C6.57882711,13.4085366 6.70068545,13.6219512 6.88347296,13.7439024 L7.76694593,14.2621951 L8.25437928,15.1158537 C8.37623762,15.2987805 8.55902513,15.4207317 8.80274181,15.4207317 L9.80807312,15.4207317 L10.6915461,15.9085366 C10.7829398,15.9695122 10.9047982,16 10.9961919,16 C11.0875857,16 11.209444,15.9695122 11.3008378,15.9085366 L12.1843107,15.4207317 L13.189642,15.4207317 C13.4028941,15.4207317 13.6161462,15.2987805 13.7380046,15.1158537 L14.2559025,14.2317073 L15.1089109,13.7439024 C15.2916984,13.6219512 15.4135567,13.4390244 15.4135567,13.195122 L15.4135567,12.2195122 L15.9314547,11.3353659 C16.0228484,11.1219512 16.0228484,10.9085366 15.9314547,10.695122 Z" id="Path" stroke="#FFFFFF" fill="#30AF38" fill-rule="nonzero"></path>
                                    <polygon id="Path" fill="#FFFFFF" fill-rule="nonzero" points="10.2 13.3333333 8.2 11.3846154 8.97192982 10.6324786 10.2 11.8290598 12.7614035 9.33333333 13.5333333 10.0854701"></polygon>
                                </g>
                            </g>
                        </g>
                    </g>
                </g>
            </g>
        </g>
    </g>
</svg>