<svg width="17px" height="22px" viewBox="0 0 17 22" id="icon-repo">
    <g id="Page-1" stroke="none" stroke-width="1" fill="none" fill-rule="evenodd">
        <g id="GithubProfileView_Desktop" transform="translate(-971.000000, -1103.000000)" fill="#4A4A4A" fill-rule="nonzero">
            <g id="Group-11" transform="translate(0.000000, 482.000000)">
                <g id="Group-28-Copy" transform="translate(928.000000, 505.000000)">
                    <g id="Group-42" transform="translate(43.000000, 32.000000)">
                        <g id="Group-38" transform="translate(0.000000, 81.000000)">
                            <g id="Group-40">
                                <path d="M16.9999823,6.34660491 C17.0055124,4.62756602 15.7146208,3.18581799 14.0182506,3.01642156 C12.3218804,2.84702514 10.7756649,4.00546484 10.4467659,5.69221271 C10.1178669,7.37896058 11.1140128,9.04153502 12.747687,9.53246606 L12.747687,11.3611504 L4.2525739,14.7031187 L4.2525739,9.53883779 C5.82372242,9.06449201 6.812151,7.49987091 6.57445247,5.8634481 C6.33675394,4.22702528 4.94486079,3.0140161 3.3048112,3.0140161 C1.6647616,3.0140161 0.272868452,4.22702528 0.0351699235,5.8634481 C-0.202528605,7.49987091 0.785899973,9.06449201 2.35704849,9.53883779 L2.35704849,18.4751783 C0.785899973,18.9495241 -0.202528605,20.5141452 0.0351699235,22.150568 C0.272868452,23.7869908 1.6647616,25 3.3048112,25 C4.94486079,25 6.33675394,23.7869908 6.57445247,22.150568 C6.812151,20.5141452 5.82372242,18.9495241 4.2525739,18.4751783 L4.2525739,16.7548133 L14.6432124,12.6641676 L14.6432124,9.53883779 C16.0399351,9.11388601 16.9968008,7.81781621 16.9999823,6.34660491 Z M1.89580397,6.34660491 C1.89580397,5.56186678 2.52663799,4.92571084 3.3048112,4.92571084 C4.0829844,4.92571084 4.71381842,5.56186678 4.71381842,6.34660491 C4.71381842,7.13134304 4.0829844,7.76749899 3.3048112,7.76749899 C2.52663799,7.76749899 1.89580397,7.13134304 1.89580397,6.34660491 Z M4.71381842,21.6674112 C4.71207456,22.4517322 4.08047043,23.0862895 3.30270978,23.0851178 C2.52494912,23.0839461 1.89522792,22.4474885 1.89580791,21.6631658 C1.89638789,20.878843 2.52704967,20.2433332 3.3048112,20.2433313 C3.67905116,20.2433303 4.03791726,20.3934685 4.30224837,20.6606272 C4.56657949,20.927786 4.71465752,21.290015 4.71381842,21.6674112 Z M13.6954497,7.76749899 C12.9176901,7.76574041 12.2884413,7.12880787 12.2896032,6.34448577 C12.2907651,5.56016367 12.9218983,4.92512993 13.6996596,4.92571481 C14.4774209,4.92629968 15.1076141,5.56228194 15.1076161,6.34660491 C15.1076199,6.72455603 14.9583043,7.08693497 14.692696,7.35358822 C14.4270878,7.62024147 14.067076,7.76919383 13.6922905,7.76749899 L13.6954497,7.76749899 Z" id="Shape"></path>
                            </g>
                        </g>
                    </g>
                </g>
            </g>
        </g>
    </g>
</svg>