<svg width="21px" height="22px" viewBox="0 0 22 22" id="icon-star">
    <g id="Page-1" stroke="none" stroke-width="1" fill="none" fill-rule="evenodd">
        <g id="GithubProfileView_Desktop" transform="translate(-1144.000000, -1021.000000)" fill="#4A4A4A">
            <g id="Group-11" transform="translate(0.000000, 482.000000)">
                <g id="Group-28-Copy" transform="translate(928.000000, 505.000000)">
                    <g id="Group-42" transform="translate(43.000000, 32.000000)">
                        <g id="Group-37" transform="translate(173.000000, 0.000000)">
                            <g id="Group-44">
                                <g id="Star" transform="translate(0.000000, 2.000000)">
                                    <g id="noun_Star_1864272_000000" transform="translate(0.504167, 0.504167)">
                                        <path d="M15.9067971,12.8278149 L20.2567876,9.06930485 C20.8721521,8.53555195 20.5538601,7.49028586 19.7475204,7.44580645 L14.1455814,7.08997118 C13.80607,7.06773148 13.5089975,6.84533444 13.3816807,6.51173887 L11.3233925,0.996292235 C11.02632,0.217902588 9.98656616,0.217902588 9.68949364,0.996292235 L7.63120546,6.48949917 C7.50388867,6.82309473 7.20681615,7.04549177 6.86730469,7.06773148 L1.24414628,7.42356674 C0.437806581,7.46804615 0.119514596,8.51331225 0.734879102,9.04706515 L5.08486957,12.7833355 C5.33950316,13.0057325 5.46681996,13.3838075 5.38194209,13.717403 L3.96023789,19.433007 C3.7692627,20.2336364 4.59682186,20.8785878 5.27584477,20.4337937 L10.0077856,17.253516 C10.3048581,17.0533587 10.6655891,17.0533587 10.9414421,17.253516 L15.6946024,20.4337937 C16.3736253,20.8785878 17.2011845,20.2336364 17.0102093,19.433007 L15.5885051,13.7396427 C15.5248467,13.4060472 15.630944,13.0502119 15.9067971,12.8278149 Z" id="Path"></path>
                                    </g>
                                </g>
                            </g>
                        </g>
                    </g>
                </g>
            </g>
        </g>
    </g>
</svg>